<?xml version="1.0" encoding="utf-8"?>
<!-- Generator: Adobe Illustrator 16.0.0, SVG Export Plug-In . SVG Version: 6.00 Build 0)  -->
<!DOCTYPE svg PUBLIC "-//W3C//DTD SVG 1.1//EN" "http://www.w3.org/Graphics/SVG/1.1/DTD/svg11.dtd">
<svg version="1.1" id="Layer_1" xmlns="http://www.w3.org/2000/svg" xmlns:xlink="http://www.w3.org/1999/xlink" x="0px" y="0px"
	 width="443px" height="446.588px" viewBox="0 0 443 446.588" enable-background="new 0 0 443 446.588" xml:space="preserve">
<g>
	<defs>
		<rect id="SVGID_1_" x="25.151" y="28" width="393.849" height="393.849"/>
	</defs>
	<clipPath id="SVGID_2_">
		<use xlink:href="#SVGID_1_"  overflow="visible"/>
	</clipPath>
	<path clip-path="url(#SVGID_2_)" fill="none" stroke="#46B598" stroke-miterlimit="10" d="M222.075,417.288
		c4.494-4.514,13.415-4.935,18.289-0.862c5.087,3.944,14.375,2.621,18.125-2.579c3.565-5.281,12.248-7.382,17.794-4.307
		c5.729,2.909,14.591-0.159,17.303-5.988c2.467-5.849,10.596-9.566,16.649-7.612c6.195,1.754,14.308-2.939,15.847-9.168
		c1.304-6.204,8.585-11.397,14.907-10.632c6.421,0.547,13.5-5.593,13.831-11.995c0.144-6.372,6.314-12.844,12.636-13.249
		c6.382-0.635,12.179-7.998,11.327-14.386c-1.066-6.275,3.775-13.796,9.913-15.392c6.148-1.839,10.45-10.167,8.399-16.268
		c-2.241-5.948,1.082-14.244,6.811-16.995c5.692-2.994,8.333-11.992,5.15-17.567c-3.34-5.384-1.647-14.212,3.445-17.981
		c5.02-4.006,5.899-13.347,1.72-18.228c-4.297-4.661-4.297-13.648,0-18.309c4.18-4.881,3.3-14.221-1.72-18.228
		c-5.093-3.769-6.785-12.598-3.445-17.981c3.183-5.575,0.542-14.574-5.15-17.567c-5.729-2.75-9.052-11.047-6.811-16.995
		c2.051-6.102-2.251-14.429-8.399-16.268c-6.138-1.596-10.979-9.116-9.913-15.392c0.852-6.388-4.945-13.75-11.327-14.386
		c-6.321-0.405-12.531-6.916-12.636-13.249c-0.331-6.402-7.41-12.542-13.831-11.995c-6.322,0.765-13.604-4.427-14.907-10.631
		c-1.539-6.23-9.651-10.924-15.847-9.168c-6.053,1.954-14.182-1.764-16.649-7.614c-2.712-5.829-11.573-8.896-17.303-5.988
		c-5.546,3.075-14.229,0.975-17.794-4.305c-3.75-5.201-13.038-6.525-18.125-2.581c-4.874,4.073-13.795,3.652-18.289-0.861
		c-4.664-4.402-14.035-3.962-18.289,0.861c-4.018,4.91-12.862,6.169-18.124,2.581c-5.408-3.446-14.525-1.242-17.795,4.305
		c-3.027,5.591-11.473,8.514-17.302,5.988c-5.991-2.343-14.516,1.557-16.649,7.614c-1.891,6.056-9.63,10.532-15.848,9.168
		c-6.337-1.156-13.965,4.287-14.905,10.631c-0.705,6.298-7.463,12.156-13.832,11.995c-6.411,0.026-12.878,6.806-12.637,13.249
		c0.464,6.354-5.068,13.38-11.326,14.386c-6.293,1.241-11.367,9.119-9.912,15.392c1.661,6.143-2.441,14.086-8.4,16.268
		c-5.951,2.423-9.437,11.127-6.81,16.995c2.804,5.695,0.29,14.269-5.152,17.567c-5.385,3.542-7.141,12.7-3.445,17.981
		c3.836,5.076,2.998,13.968-1.718,18.228c-4.62,4.492-4.62,13.817,0,18.309c4.716,4.261,5.555,13.152,1.718,18.228
		c-3.696,5.282-1.94,14.439,3.445,17.981c5.442,3.299,7.957,11.873,5.152,17.567c-2.627,5.869,0.859,14.571,6.81,16.995
		c5.959,2.183,10.061,10.125,8.4,16.268c-1.455,6.274,3.618,14.152,9.912,15.392c6.258,1.005,11.791,8.032,11.326,14.386
		c-0.241,6.443,6.188,13.184,12.637,13.249c6.369-0.162,13.126,5.697,13.832,11.995c0.94,6.344,8.568,11.787,14.905,10.632
		c6.218-1.364,13.957,3.112,15.848,9.168c2.133,6.056,10.658,9.956,16.649,7.612c5.83-2.524,14.275,0.397,17.302,5.988
		c3.27,5.548,12.388,7.752,17.795,4.307c5.262-3.589,14.106-2.331,18.124,2.579C208.04,421.25,217.412,421.69,222.075,417.288"/>
</g>
<g>
	<defs>
		<rect id="SVGID_3_" x="18.484" y="21.334" width="407.182" height="407.182"/>
	</defs>
	<clipPath id="SVGID_4_">
		<use xlink:href="#SVGID_3_"  overflow="visible"/>
	</clipPath>
	<path clip-path="url(#SVGID_4_)" fill="none" stroke="#46B598" stroke-width="2" stroke-miterlimit="10" d="M222.075,423.8
		c4.646-4.666,13.869-5.102,18.908-0.891c5.259,4.077,14.862,2.709,18.738-2.667c3.686-5.46,12.663-7.631,18.397-4.452
		c5.923,3.007,15.084-0.164,17.888-6.19c2.55-6.048,10.956-9.891,17.212-7.871c6.404,1.814,14.792-3.038,16.384-9.478
		c1.348-6.415,8.875-11.783,15.411-10.993c6.639,0.566,13.957-5.782,14.3-12.4c0.147-6.587,6.528-13.279,13.063-13.698
		c6.598-0.656,12.591-8.268,11.711-14.872c-1.104-6.488,3.902-14.264,10.248-15.914c6.357-1.901,10.805-10.511,8.684-16.819
		c-2.317-6.149,1.119-14.727,7.041-17.57c5.885-3.095,8.615-12.397,5.325-18.162c-3.453-5.566-1.703-14.694,3.562-18.59
		c5.189-4.142,6.1-13.799,1.777-18.845c-4.441-4.819-4.441-14.11,0-18.929c4.322-5.046,3.412-14.703-1.777-18.845
		c-5.265-3.896-7.015-13.024-3.562-18.59c3.29-5.763,0.56-15.067-5.325-18.162c-5.922-2.843-9.358-11.421-7.041-17.57
		c2.121-6.308-2.326-14.917-8.684-16.819c-6.346-1.65-11.352-9.425-10.248-15.914c0.88-6.604-5.113-14.214-11.711-14.872
		c-6.535-0.419-12.955-7.15-13.063-13.698c-0.343-6.619-7.661-12.966-14.3-12.4c-6.536,0.791-14.063-4.578-15.411-10.991
		c-1.592-6.441-9.979-11.293-16.384-9.479c-6.257,2.02-14.662-1.824-17.212-7.871c-2.804-6.026-11.965-9.198-17.888-6.191
		c-5.734,3.179-14.711,1.008-18.397-4.45c-3.876-5.377-13.479-6.746-18.738-2.668c-5.039,4.211-14.262,3.775-18.908-0.891
		c-4.821-4.551-14.51-4.096-18.908,0.891c-4.154,5.077-13.297,6.378-18.738,2.668c-5.59-3.563-15.017-1.284-18.398,4.45
		c-3.129,5.78-11.86,8.803-17.888,6.191c-6.194-2.422-15.007,1.609-17.212,7.871c-1.956,6.261-9.956,10.889-16.385,9.479
		c-6.552-1.195-14.438,4.432-15.41,10.991c-0.729,6.51-7.716,12.567-14.3,12.4c-6.628,0.027-13.314,7.037-13.065,13.698
		c0.479,6.568-5.24,13.833-11.71,14.872c-6.507,1.283-11.751,9.428-10.247,15.914c1.717,6.35-2.523,14.563-8.685,16.819
		c-6.152,2.505-9.757,11.504-7.041,17.57c2.899,5.888,0.3,14.751-5.326,18.162c-5.567,3.662-7.383,13.129-3.562,18.59
		c3.966,5.248,3.1,14.441-1.777,18.845c-4.776,4.644-4.776,14.285,0,18.929c4.876,4.405,5.743,13.597,1.777,18.845
		c-3.821,5.461-2.006,14.928,3.562,18.59c5.626,3.411,8.226,12.275,5.326,18.162c-2.716,6.067,0.889,15.064,7.041,17.57
		c6.161,2.256,10.401,10.469,8.685,16.819c-1.504,6.487,3.74,14.632,10.247,15.914c6.47,1.039,12.189,8.304,11.71,14.872
		c-0.249,6.661,6.397,13.631,13.065,13.698c6.584-0.167,13.571,5.89,14.3,12.4c0.971,6.56,8.857,12.186,15.41,10.993
		c6.429-1.411,14.429,3.217,16.385,9.478c2.205,6.262,11.019,10.294,17.212,7.871c6.027-2.611,14.758,0.41,17.888,6.19
		c3.381,5.735,12.808,8.014,18.398,4.452c5.441-3.71,14.583-2.41,18.738,2.667C207.565,427.896,217.254,428.352,222.075,423.8"/>
</g>
</svg>
