<?xml version="1.0" encoding="utf-8"?>
<!-- Generator: Adobe Illustrator 16.0.0, SVG Export Plug-In . SVG Version: 6.00 Build 0)  -->
<!DOCTYPE svg PUBLIC "-//W3C//DTD SVG 1.1//EN" "http://www.w3.org/Graphics/SVG/1.1/DTD/svg11.dtd">
<svg version="1.1" id="Layer_1" xmlns="http://www.w3.org/2000/svg" xmlns:xlink="http://www.w3.org/1999/xlink" x="0px" y="0px"
	 width="363px" height="832px" viewBox="0 0 363 832" enable-background="new 0 0 363 832" xml:space="preserve">
<path fill="#46B598" d="M347.145,243.689c-0.211-41.632-34.248-75.494-75.877-75.494H97.233c-41.632,0-75.669,33.862-75.881,75.494
	l-1.175,235.57c-0.092,17.707,14.189,32.136,31.897,32.219h0.165c17.634,0,31.971-14.245,32.063-31.897l1.185-235.568
	c0.202-3.868,3.453-6.861,7.329-6.76c3.866,0.11,6.943,3.277,6.943,7.146c0,79.14,0.018,520.916,0.018,538.632
	c0,21.244,17.221,38.474,38.473,38.474s38.482-17.229,38.482-38.474V475.475h16.614v307.555c0,21.244,17.221,38.474,38.473,38.474
	s38.473-17.229,38.473-38.474c0-144.056-0.661-389.581-0.698-538.898c0-3.693,2.976-6.686,6.658-6.715
	c3.683-0.027,6.705,2.912,6.769,6.596l1.175,235.568c0.092,17.652,14.426,31.906,32.06,31.906h0.166
	c17.707-0.092,31.998-14.521,31.906-32.228L347.145,243.689z"/>
<path fill="#46B598" d="M251.925,80.557c0,36.702-29.757,66.449-66.458,66.449c-36.701,0-66.458-29.747-66.458-66.449
	c0-36.699,29.757-66.457,66.458-66.457C222.167,14.101,251.925,43.858,251.925,80.557L251.925,80.557z"/>
</svg>
