<?xml version="1.0" encoding="utf-8"?>
<!-- Generator: Adobe Illustrator 16.0.0, SVG Export Plug-In . SVG Version: 6.00 Build 0)  -->
<!DOCTYPE svg PUBLIC "-//W3C//DTD SVG 1.1//EN" "http://www.w3.org/Graphics/SVG/1.1/DTD/svg11.dtd">
<svg version="1.1" id="Layer_1" xmlns="http://www.w3.org/2000/svg" xmlns:xlink="http://www.w3.org/1999/xlink" x="0px" y="0px"
	 width="100%" height="100%" viewBox="150 300 350 230" enable-background="new 0 0 595.28 822.05" xml:space="preserve">
<g>
	<path onclick="alert('1');" stroke="white" fill="#C8E9E0" d="M302.161,391.037c0.28-0.528,0.55-1.063,0.808-1.603C302.711,389.974,302.442,390.509,302.161,391.037z" 


	/>
	<polygon onclick="alert('2');" stroke="white" fill="#C8E9E0" points="305.211,364.917 305.213,364.926 305.211,364.919 	"/>
	<path onclick="alert('3');"  stroke="white" fill="#C8E9E0" d="M305.938,367.675c-0.029-0.137-0.051-0.274-0.083-0.41C305.888,367.401,305.909,367.538,305.938,367.675z"
		/>
	<path onclick="alert('4');"  stroke="white" fill="#C8E9E0" d="M298.314,396.971c0.419-0.539,0.822-1.092,1.215-1.652C299.136,395.879,298.734,396.432,298.314,396.971z"
		/>
	<path onclick="alert('5');"  stroke="white" fill="#C8E9E0" d="M305.034,364.408c-0.213-0.624-0.439-1.244-0.7-1.858C304.595,363.164,304.82,363.785,305.034,364.408z"/>
	<path id="Faaone" stroke="white" fill="#C8E9E0" d="M304.928,384.491c-0.146,0.456-0.306,0.906-0.468,1.357c-0.065,0.18-0.13,0.359-0.197,0.538
		c-0.158,0.418-0.321,0.833-0.494,1.247c-0.089,0.211-0.182,0.42-0.273,0.63c-0.172,0.392-0.342,0.784-0.526,1.171
		c-0.258,0.54-0.527,1.075-0.808,1.603c-0.145,0.271-0.3,0.537-0.45,0.804c-0.195,0.348-0.393,0.694-0.598,1.036
		c-0.147,0.246-0.299,0.488-0.451,0.73c-0.238,0.379-0.482,0.752-0.732,1.123c-0.134,0.196-0.264,0.394-0.4,0.588
		c-0.393,0.561-0.795,1.114-1.215,1.652c0.68,3.407,0.979,7.892,1.159,13.623c15.245-0.181,24.38,9.507,30.198,20.42
		c8.932-1.783,15.949,0.534,22.242,3.899c6.51-9.262,4.174-19.375,5.891-33.447c-11.529-4.81-25.127-10.583-38.408-14.126
		C314.489,386.03,309.627,385.027,304.928,384.491z"
	

		
		/>
	<path onclick="alert('7');"  stroke="white" fill="#C8E9E0" d="M306.604,374.479c-0.003,0.192-0.01,0.385-0.016,0.578C306.594,374.864,306.601,374.672,306.604,374.479z"
		/>
	<path onclick="alert('8');"  stroke="white" fill="#C8E9E0" d="M304.928,384.491c-0.146,0.456-0.306,0.907-0.468,1.357C304.622,385.397,304.782,384.947,304.928,384.491
		L304.928,384.491z"/>
	<path onclick="alert('9');"  stroke="white" fill="#C8E9E0" d="M301.711,391.841c0.15-0.268,0.306-0.533,0.45-0.804C302.017,391.308,301.861,391.573,301.711,391.841z"/>
	<path onclick="alert('10');"  stroke="white" fill="#C8E9E0" d="M301.113,392.877c0.205-0.342,0.402-0.688,0.598-1.036C301.516,392.188,301.319,392.535,301.113,392.877z"
		/>
	<path onclick="alert('11');"  stroke="white" fill="#C8E9E0" d="M304.263,386.386c0.067-0.179,0.132-0.358,0.197-0.538C304.395,386.027,304.33,386.207,304.263,386.386z"/>
	<path onclick="alert('12');"  stroke="white" fill="#C8E9E0" d="M303.769,387.632c0.173-0.413,0.336-0.829,0.494-1.247C304.105,386.804,303.94,387.219,303.769,387.632z"/>
	<path onclick="alert('13');"  stroke="white" fill="#C8E9E0" d="M306.421,377.451c0.019-0.174,0.035-0.348,0.051-0.521C306.456,377.104,306.439,377.277,306.421,377.451z"
		/>
	<path onclick="alert('14');"  stroke="white" fill="#C8E9E0" d="M306.084,379.825c0.025-0.141,0.047-0.281,0.07-0.422C306.131,379.543,306.109,379.684,306.084,379.825z"/>
	<path onclick="alert('15');"  stroke="white" fill="#C8E9E0" d="M306.366,370.192c-0.023-0.183-0.04-0.366-0.066-0.548C306.326,369.826,306.343,370.009,306.366,370.192z"
		/>
	<path onclick="alert('16');"  stroke="white" fill="#C8E9E0" d="M306.574,372.64c-0.009-0.197-0.015-0.394-0.027-0.591C306.56,372.246,306.565,372.443,306.574,372.64z"/>
	<path onclick="alert('17');"  stroke="white" fill="#C8E9E0" d="M302.969,389.434c0.185-0.387,0.354-0.779,0.526-1.171C303.323,388.655,303.152,389.047,302.969,389.434z"
		/>
	<path onclick="alert('18');"  stroke="white" fill="#C8E9E0" d="M303.495,388.263c0.092-0.21,0.185-0.419,0.273-0.63C303.68,387.844,303.587,388.053,303.495,388.263z"/>
	<path onclick="alert('19');"  stroke="white" fill="#C8E9E0" d="M255.334,366.55c-0.936,4.113-1.166,8.082-0.125,11.077c1.285,3.704,4.518,5.919,10.787,5.057
		c1.276-3.617,2.912-7.375,4.838-11.134c8.752-17.088,6.732-39.388,2.053-62.265c-5.989-0.695-11.442-0.108-15.887,2.431
		c-3.066,1.753-5.686,3.281-8.158,4.705c3.133,10.225,5.687,23.516,6.67,34.336C256.113,357.361,256.129,363.047,255.334,366.55z"/>
	<path onclick="alert('20');"  stroke="white" fill="#C8E9E0" d="M390.021,476.014c1.452,1.24,2.858,2.696,4.21,4.379c3.316-2.11,6.602-3.784,9.686-4.745
		c-0.722-1.26-0.881-2.256-0.249-2.93c3.821-4.075,5.693-18.271,5.77-29.055c-7.65-1.922-15.355-4.109-22.537-5.945
		c0.34,7.854,2.95,19.593,3.617,28.719C390.795,470.247,390.728,473.591,390.021,476.014z"/>
	<path onclick="alert('21');"  stroke="white" fill="#C8E9E0" d="M394.23,480.393c-1.352-1.683-2.758-3.139-4.21-4.379c-11.437-9.767-25.569-6.601-35.751-2.979
		c3.226,9.399,8.959,18.748,18.252,26.327C378.465,492.778,386.435,485.355,394.23,480.393z"/>
	<path onclick="alert('22');"  stroke="white" fill="#C8E9E0" d="M299.93,394.73c0.25-0.371,0.494-0.744,0.732-1.123C300.424,393.986,300.18,394.36,299.93,394.73z"/>
	<path id="Papeari"  stroke="white" fill="#C8E9E0" d="M299.474,410.594c0.081,2.564,0.138,5.377,0.193,8.457c0.261,14.351,6.442,29.3,12.154,41.359
		c9.478-2.707,16.413-6.64,24.694-12.404c-1.635-5.161-3.779-11.245-6.844-16.992C323.854,420.101,314.719,410.413,299.474,410.594z
		"/>
	<path onclick="alert('24');"  stroke="white" fill="#C8E9E0" d="M299.529,395.318c0.137-0.194,0.267-0.392,0.4-0.588C299.797,394.926,299.665,395.124,299.529,395.318z"/>
	<path onclick="alert('25');"  stroke="white" fill="#C8E9E0" d="M403.916,475.647c-3.084,0.961-6.369,2.635-9.686,4.745c-7.796,4.963-15.766,12.386-21.709,18.97
		c5.054,4.121,11.149,7.725,18.479,10.521c23.379,8.921,38.422,12.152,47.824,8.438
		C432.963,500.196,408.199,483.125,403.916,475.647z"/>
	<path id="Mataiea"  stroke="white" fill="#C8E9E0" d="M299.474,410.594c-0.181-5.731-0.479-10.216-1.159-13.623c-5.434,6.978-12.981,12.026-20.98,13.079
		c-1.586,0.209-3.012,0.243-4.313,0.145c0.427,7.161,1.763,13.496-1.354,27.523c-2.288,10.299-0.759,18.415,0.471,26.285
		c5.519,0.666,10.979,0.865,16.196,0.38c9.73-0.905,17.174-2.169,23.487-3.973c-5.712-12.06-11.894-27.009-12.154-41.359
		C299.611,415.971,299.555,413.158,299.474,410.594z"/>
	<path onclick="alert('27');"  stroke="white" fill="#C8E9E0" d="M300.662,393.607c0.152-0.242,0.304-0.485,0.451-0.73C300.967,393.123,300.814,393.365,300.662,393.607z"/>
	<path onclick="alert('28');"  stroke="white" fill="#C8E9E0" d="M270.834,371.55c-1.926,3.759-3.562,7.517-4.838,11.134c-2.18,6.175-3.297,11.932-2.979,16.575
		c0.426,6.232,3.459,10.439,10.004,10.936c1.301,0.099,2.727,0.064,4.313-0.145c7.999-1.053,15.547-6.102,20.98-13.079
		c0.419-0.539,0.821-1.092,1.215-1.652c0.136-0.194,0.268-0.392,0.4-0.588c0.25-0.37,0.494-0.744,0.732-1.123
		c0.152-0.242,0.305-0.485,0.451-0.73c0.206-0.342,0.402-0.688,0.598-1.036c0.15-0.268,0.306-0.533,0.45-0.804
		c0.281-0.528,0.55-1.063,0.808-1.603c0.184-0.387,0.354-0.779,0.526-1.171c0.092-0.21,0.185-0.419,0.273-0.63
		c0.172-0.413,0.337-0.829,0.494-1.247c0.067-0.179,0.132-0.358,0.197-0.538c0.162-0.45,0.322-0.901,0.468-1.357
		c0.245-0.766,0.462-1.54,0.656-2.318c0.021-0.087,0.04-0.175,0.062-0.262c0.167-0.692,0.313-1.387,0.438-2.086
		c0.025-0.141,0.047-0.281,0.07-0.422c0.107-0.648,0.197-1.299,0.267-1.952c0.019-0.174,0.035-0.348,0.051-0.521
		c0.058-0.624,0.095-1.248,0.116-1.873c0.006-0.193,0.013-0.385,0.016-0.578c0.009-0.613-0.003-1.226-0.029-1.839
		c-0.009-0.197-0.015-0.394-0.027-0.591c-0.039-0.62-0.104-1.239-0.181-1.857c-0.023-0.183-0.04-0.366-0.066-0.548
		c-0.096-0.659-0.22-1.314-0.361-1.969c-0.029-0.137-0.051-0.274-0.083-0.41c-0.181-0.784-0.393-1.564-0.643-2.339
		c-0.001-0.003-0.002-0.005-0.002-0.008c-0.056-0.17-0.118-0.339-0.177-0.509c-0.214-0.623-0.439-1.244-0.7-1.858
		c-6.35-14.938-5.721-32.662,4.588-40.262c-11.86-5.953-24.88-11.707-36.035-13.003C277.566,332.162,279.586,354.462,270.834,371.55
		z"/>
	<path onclick="alert('29');"  stroke="white" fill="#C8E9E0" d="M305.584,382.173c0.021-0.087,0.04-0.175,0.062-0.262C305.624,381.998,305.605,382.085,305.584,382.173z"/>
	<path id="Punaauia"  stroke="white" fill="#C8E9E0" d="M220.334,396.384c8.451,3.145,19.797,6.865,29.463,6.793c5.098-0.038,9.729-1.13,13.221-3.918
		c-0.318-4.644,0.799-10.4,2.979-16.575c-6.27,0.862-9.502-1.353-10.787-5.057c-2.012,0.762-4.096,0.537-6.203-0.457
		c-9.682,7.203-42.486-12.691-59.938-22.236c-4.4,9.121-4.698,19.874-0.068,31.449c2.599,6.495,4.473,13.816,6.1,21.06
		C203.816,399.25,210.27,392.64,220.334,396.384z"/>
	<path onclick="alert('31');"  stroke="white" fill="#C8E9E0" d="M249.006,377.17c2.107,0.994,4.191,1.219,6.203,0.457c-1.041-2.995-0.811-6.964,0.125-11.077
		c0.795-3.503,0.779-9.188,0.178-15.793c-9.168-3.248-18.576-14.241-26.658-23.995c-2.313,1.054-4.875,2.188-7.767,3.432
		c2.707,8.417,8.284,22.123,14.827,32.725C240.053,369.625,244.578,375.081,249.006,377.17z"/>
	<path onclick="alert('32');"  stroke="white" fill="#C8E9E0" d="M255.512,350.757c-0.983-10.82-3.537-24.111-6.67-34.336c-6.063,3.491-11.244,6.353-19.988,10.341
		C236.936,336.516,246.344,347.509,255.512,350.757z"/>
	<path id="Papeete"  stroke="white" fill="#C8E9E0" d="M235.914,362.918c-6.543-10.602-12.12-24.308-14.827-32.725c-2.072,0.892-4.311,1.839-6.753,2.856
		c-3.018,1.257-5.822,2.673-8.405,4.233C210.334,346.879,225.304,360.756,235.914,362.918z"/>
	<path id="Faaa"  stroke="white" fill="#C8E9E0" d="M249.006,377.17c-4.428-2.089-8.953-7.545-13.092-14.252c-10.61-2.162-25.58-16.039-29.985-25.635
		c-7.769,4.692-13.507,10.697-16.86,17.65C206.52,364.479,239.324,384.373,249.006,377.17z"/>
	<path id="Paea"  stroke="white" fill="#C8E9E0" d="M220.334,396.384c-10.064-3.744-16.518,2.866-25.234,11.059c4.215,18.774,6.76,37.016,15.9,38.94
		c2.121,0.446,4.908,1.329,8.191,2.466c8.865-12.609,24.166-31.043,30.605-45.672C240.131,403.249,228.785,399.528,220.334,396.384z
		"/>
	<path id="Papara"  stroke="white" fill="#C8E9E0" d="M271.667,437.718c3.117-14.027,1.781-20.362,1.354-27.523c-6.545-0.496-9.578-4.703-10.004-10.936
		c-3.492,2.788-8.123,3.88-13.221,3.918c-6.439,14.629-21.74,33.063-30.605,45.672c12.764,4.419,33.224,12.772,52.946,15.154
		C270.908,456.133,269.379,448.017,271.667,437.718z"/>
	<path onclick="alert('37');"  stroke="white" fill="#C8E9E0" d="M304.334,362.55c0.261,0.614,0.487,1.235,0.7,1.858c0.059,0.17,0.121,0.339,0.177,0.509
		c0,0,0,0.001,0,0.001c11.158-10.583,24.527-16.253,41.516-18.721c-10.361-9.244-23.396-16.496-32.393-21.148
		c-1.769-0.915-3.576-1.841-5.412-2.762C298.613,329.888,297.984,347.611,304.334,362.55z"/>
	<path onclick="alert('38');"  stroke="white" fill="#C8E9E0" d="M305.211,364.917c-0.056-0.17-0.118-0.339-0.177-0.509C305.093,364.578,305.155,364.747,305.211,364.917z"
		/>
	<path id="Hitiaa"  stroke="white" fill="#C8E9E0" d="M319.396,387.34c13.281,3.543,26.879,9.316,38.408,14.126c0.602-4.939,1.701-10.365,3.863-16.416
		c3.766-10.546,0.721-20.241-5.568-28.764C344.52,364.392,327.996,377.664,319.396,387.34z"/>
	<path onclick="alert('40');"  stroke="white" fill="#C8E9E0" d="M305.855,367.265c-0.181-0.784-0.393-1.564-0.643-2.339C305.463,365.7,305.675,366.48,305.855,367.265z"/>
	<path onclick="alert('41');"  stroke="white" fill="#C8E9E0" d="M305.584,382.173c-0.194,0.778-0.411,1.552-0.656,2.318l0,0
		C305.173,383.725,305.391,382.952,305.584,382.173z"/>
	<path onclick="alert('42');"  stroke="white" fill="#C8E9E0" d="M306.574,372.64c0.026,0.613,0.038,1.226,0.029,1.839C306.612,373.866,306.601,373.253,306.574,372.64z"/>
	<path onclick="alert('1');"  stroke="white" fill="#C8E9E0" d="M305.646,381.911c0.167-0.692,0.313-1.387,0.438-2.086C305.959,380.523,305.813,381.219,305.646,381.911z"
		/>
	<path onclick="alert('43');"  stroke="white" fill="#C8E9E0" d="M306.3,369.644c-0.096-0.659-0.22-1.314-0.361-1.969C306.08,368.329,306.204,368.985,306.3,369.644z"/>
	<path onclick="alert('44');"  stroke="white" fill="#C8E9E0" d="M305.213,364.926c0.25,0.774,0.462,1.555,0.643,2.339c0.032,0.136,0.054,0.273,0.083,0.41
		c0.142,0.654,0.266,1.31,0.361,1.969c0.026,0.183,0.043,0.365,0.066,0.548c0.078,0.618,0.142,1.237,0.181,1.857
		c0.013,0.197,0.019,0.394,0.027,0.591c0.026,0.613,0.038,1.226,0.029,1.839c-0.003,0.193-0.01,0.385-0.016,0.578
		c-0.021,0.625-0.06,1.249-0.116,1.873c-0.016,0.174-0.032,0.348-0.051,0.521c-0.069,0.652-0.159,1.303-0.267,1.952
		c-0.023,0.141-0.045,0.281-0.07,0.422c-0.125,0.699-0.271,1.394-0.438,2.086c-0.021,0.087-0.04,0.175-0.062,0.262
		c-0.193,0.779-0.411,1.552-0.656,2.318c4.699,0.536,9.562,1.539,14.469,2.849c8.6-9.676,25.123-22.948,36.703-31.054
		c-2.641-3.577-5.852-6.947-9.373-10.088c-16.988,2.468-30.357,8.138-41.516,18.721
		C305.212,364.921,305.212,364.924,305.213,364.926z"/>
	<path onclick="alert('45');"  stroke="white" fill="#C8E9E0" d="M306.547,372.049c-0.039-0.621-0.103-1.239-0.181-1.857C306.443,370.81,306.508,371.429,306.547,372.049z"
		/>
	<path onclick="alert('46');"  stroke="white" fill="#C8E9E0" d="M306.154,379.403c0.107-0.649,0.197-1.299,0.267-1.952C306.352,378.104,306.262,378.754,306.154,379.403z"
		/>
	<path onclick="alert('47');"  stroke="white" fill="#C8E9E0" d="M306.472,376.93c0.057-0.624,0.096-1.248,0.116-1.873C306.566,375.682,306.529,376.306,306.472,376.93z"/>
	<path id="afaahiti"  stroke="white" fill="#C8E9E0" d="M329.672,431.014c3.064,5.747,5.209,11.831,6.844,16.992c2.455-1.71,5.023-3.573,7.818-5.623
		c3.365-2.469,5.801-4.938,7.58-7.47C345.621,431.548,338.604,429.23,329.672,431.014z"/>
	<path onclick="alert('49');"  stroke="white" fill="#C8E9E0" d="M424,446.884c-4.727-0.853-9.633-1.981-14.563-3.221c-0.076,10.784-1.948,24.979-5.77,29.055
		c-0.632,0.674-0.473,1.67,0.249,2.93c4.283,7.478,29.047,24.549,34.908,42.674c5.88-2.324,9.56-7.357,11.676-15.438
		C456,481.884,454.5,452.384,424,446.884z"/>
	<path id="Afaahiti"  stroke="white" fill="#C8E9E0" d="M386.899,437.718c-18.055-4.617-32.783-7.007-34.899,2.666c-0.297,1.358-0.544,2.809-0.737,4.328
		c9.196,6.236,28.93,19.711,39.254,21.725C389.85,457.311,387.239,445.571,386.899,437.718z"/>
	<path onclick="alert('51');"  stroke="white" fill="#C8E9E0" d="M390.021,476.014c0.707-2.423,0.774-5.767,0.496-9.577c-10.324-2.014-30.058-15.488-39.254-21.725
		c-1.026,8.079-0.457,18.229,3.007,28.323C364.451,469.413,378.584,466.247,390.021,476.014z"/>
</g>


</svg>
